<svg xmlns="http://www.w3.org/2000/svg" width="44" height="33" viewBox="0 0 44 33">
    <g fill="none" fill-rule="evenodd">
        <g fill="#000" fill-rule="nonzero">
            <g>
                <g>
                    <path d="M43.778 13.515l-6.882-7.336c-.133-.134-.355-.223-.533-.223h-8.125V3.912C28.238 1.778 26.507 0 24.331 0H3.907C1.776 0 0 1.734 0 3.868v22.94c0 .4.355.756.755.756H3.64c.266 2.267 2.22 4.001 4.529 4.001 2.308 0 4.262-1.734 4.528-4.001h17.583c.266 2.267 2.22 4.001 4.528 4.001 2.31 0 4.263-1.734 4.529-4.001h3.907c.4 0 .755-.356.755-.756V14.004c-.044-.178-.089-.356-.222-.49zm-1.288.8v.8h-9.146V7.424h2.708l6.438 6.89zM3.952 1.512h20.423c1.332 0 2.398 1.067 2.398 2.4V19.65H1.554V3.912c0-1.333 1.066-2.4 2.398-2.4zm4.262 28.586c-1.687 0-3.064-1.378-3.064-3.068 0-1.69 1.377-3.067 3.064-3.067s3.063 1.378 3.063 3.067c0 1.69-1.331 3.068-3.063 3.068zm0-7.647c-2.22 0-4.04 1.556-4.484 3.69H1.51v-4.98h25.219v4.98h-14.03c-.4-2.134-2.265-3.69-4.485-3.69zm26.64 7.647c-1.688 0-3.064-1.378-3.064-3.068 0-1.69 1.376-3.067 3.064-3.067 1.687 0 3.063 1.378 3.063 3.067 0 1.69-1.332 3.068-3.063 3.068zm4.484-3.957c-.444-2.09-2.264-3.69-4.484-3.69s-4.04 1.556-4.485 3.69h-2.13V7.424h3.596v8.447c0 .4.355.756.754.756h9.901v9.514h-3.152z" transform="translate(-688 -8798) translate(0 8652) translate(688 146.6)"/>
                    <path d="M20.788 6.031c-.316-.378-.886-.378-1.266-.063L11.99 13.16l-2.786-2.776c-.38-.378-.886-.378-1.266 0-.38.379-.38.883 0 1.262l3.355 3.406c.19.19.38.252.633.252.254 0 .444-.063.633-.252l8.167-7.759c.38-.315.443-.883.063-1.262z" transform="translate(-688 -8798) translate(0 8652) translate(688 146.6)"/>
                </g>
            </g>
        </g>
    </g>
</svg>
